<svg width="1080" height="218" viewBox="0 0 1080 218" fill="none" xmlns="http://www.w3.org/2000/svg">
<path fill-rule="evenodd" clip-rule="evenodd" d="M163.876 87.2121C168.724 87.2121 173.277 84.8854 176.117 80.9569V80.9569C183.346 70.9591 176.19 56.981 163.853 57L3.23952 57.2472C0.59187 57.2513 -0.932523 60.2579 0.62901 62.3961L2.49357 64.9492C2.49381 64.9495 2.49374 64.95 2.49343 64.9502V64.9502C2.49311 64.9504 2.49304 64.9509 2.49328 64.9512L3.01434 65.6622L18.7366 87.1901C18.7467 87.2039 18.7627 87.2121 18.7798 87.2121V87.2121C18.7969 87.2121 18.813 87.2202 18.8231 87.234L55.1119 136.752C55.1271 136.773 55.1123 136.802 55.0865 136.802V136.802C55.0609 136.802 55.046 136.831 55.0611 136.852L78.0845 168.681C86.0732 179.725 102.505 179.783 110.571 168.795V168.795C120.317 155.521 110.838 136.802 94.3698 136.802H71.9163C70.6681 136.802 69.4946 136.207 68.7568 135.2V135.2C66.8605 132.613 68.7084 128.968 71.9163 128.968L132.382 128.968C137.702 128.968 142.702 126.424 145.834 122.123V122.123C153.844 111.125 145.988 95.6842 132.382 95.6842H41.9452C40.5954 95.6842 39.3263 95.0409 38.5284 93.9521V93.9521C36.4778 91.1539 38.4761 87.2121 41.9452 87.2121L163.876 87.2121Z" fill="#F1BD5B"/>
<path d="M441.974 108.773C441.974 122.387 439.117 134.452 433.405 144.969C427.746 155.486 419.765 163.467 409.462 168.912C399.212 174.304 387.067 177 373.026 177H319.454L343.718 62.168H389.442C406.739 62.168 419.819 66.252 428.681 74.4199C437.543 82.5879 441.974 94.0391 441.974 108.773ZM405.218 111.416C405.218 103.995 403.269 98.4434 399.372 94.7598C395.475 91.0762 389.496 89.2344 381.435 89.2344H372.546L359.813 149.934H371.425C381.995 149.934 390.27 146.49 396.249 139.604C402.228 132.663 405.218 123.268 405.218 111.416Z" fill="#F1BD5B"/>
<path d="M299.992 177H265.398L289.662 62.168H324.256L299.992 177Z" fill="#F1BD5B"/>
<path d="M263.233 94.5195C257.574 91.3698 252.502 89.1543 248.018 87.873C243.534 86.5918 239.023 85.9512 234.485 85.9512C230.855 85.9512 227.972 86.7253 225.836 88.2734C223.754 89.8216 222.713 91.8503 222.713 94.3594C222.713 96.7083 223.567 98.737 225.276 100.445C226.984 102.154 230.668 104.556 236.327 107.652C245.402 112.457 251.728 117.422 255.305 122.547C258.935 127.618 260.75 134.078 260.75 141.926C260.75 149.346 258.668 155.966 254.504 161.785C250.394 167.604 244.681 171.928 237.368 174.758C230.107 177.587 221.485 179.002 211.502 179.002C204.242 179.002 197.435 178.201 191.082 176.6C184.783 174.945 179.258 172.836 174.506 170.273L180.512 141.926C190.709 149.453 201.039 153.217 211.502 153.217C219.83 153.217 223.995 150.254 223.995 144.328C223.995 141.659 222.954 139.443 220.871 137.682C218.843 135.867 215.239 133.785 210.061 131.436C201.413 127.378 195.22 122.84 191.483 117.822C187.799 112.751 185.957 106.291 185.957 98.4434C185.957 91.0228 187.986 84.3229 192.043 78.3438C196.101 72.3112 201.653 67.8001 208.7 64.8105C215.746 61.7676 223.914 60.2461 233.204 60.2461C240.571 60.2461 247.164 60.9134 252.983 62.248C258.855 63.5827 264.167 65.1042 268.918 66.8125L263.233 94.5195Z" fill="#F1BD5B"/>
<path d="M649.344 110.615C649.344 116.221 648.73 121.853 647.502 127.512C646.274 133.171 644.513 138.482 642.217 143.447C639.922 148.412 637.199 152.843 634.049 156.74C630.953 160.584 627.456 163.68 623.559 166.029L645.58 192.455H605.381L594.651 178.441C590.433 178.815 586.59 179.002 583.12 179.002C572.87 179.002 564.034 176.92 556.614 172.756C549.246 168.538 543.614 162.613 539.717 154.979C535.82 147.344 533.871 138.616 533.871 128.793C533.871 116.087 536.674 104.342 542.28 93.5586C547.885 82.7747 555.599 74.5267 565.422 68.8145C575.245 63.1022 586.643 60.2461 599.616 60.2461C615.044 60.2461 627.189 64.7305 636.051 73.6992C644.913 82.668 649.344 94.9733 649.344 110.615ZM612.588 111.736C612.588 104.743 611.12 99.431 608.184 95.8008C605.301 92.1172 601.137 90.2754 595.692 90.2754C590.674 90.2754 586.296 91.957 582.559 95.3203C578.822 98.6836 575.886 103.355 573.75 109.334C571.668 115.26 570.627 121.479 570.627 127.992C570.627 135.092 572.095 140.458 575.032 144.088C577.968 147.665 582.025 149.453 587.203 149.453C592.008 149.453 596.306 147.958 600.096 144.969C603.886 141.979 606.903 137.441 609.145 131.355C611.44 125.216 612.588 118.676 612.588 111.736Z" fill="#F1BD5B"/>
<path d="M529.995 89.2344H493.079L489.635 105.971H524.229L518.543 133.037H483.95L480.346 149.934H519.825L514.059 177H439.987L464.25 62.168H535.76L529.995 89.2344Z" fill="#F1BD5B"/>
<path d="M958.42 91.877C958.42 100.579 955.404 108.026 949.371 114.219C943.392 120.411 935.411 124.389 925.428 126.15V126.471C933.809 129.567 939.121 136.4 941.364 146.971L947.77 177H911.014L906.77 151.455C905.916 146.65 904.341 142.993 902.045 140.484C899.803 137.922 896.493 136.641 892.115 136.641H891.795L883.307 177H848.713L872.977 62.168H918.061C930.767 62.168 940.67 64.7572 947.77 69.9355C954.87 75.1139 958.42 82.4277 958.42 91.877ZM921.504 98.2832C921.504 94.4395 920.436 91.4499 918.301 89.3145C916.219 87.179 913.069 86.1113 908.852 86.1113H902.686L896.76 112.377H904.448C909.626 112.377 913.763 111.016 916.86 108.293C919.956 105.57 921.504 102.234 921.504 98.2832Z" fill="#F1BD5B"/>
<path d="M853.153 89.2344H816.237L812.793 105.971H847.387L841.701 133.037H807.108L803.504 149.934H842.983L837.217 177H763.145L787.409 62.168H858.918L853.153 89.2344Z" fill="#F1BD5B"/>
<path d="M699.278 179.002C685.024 179.002 674.08 175.585 666.446 168.752C658.812 161.919 654.995 151.989 654.995 138.963C654.995 134.105 655.929 127.005 657.797 117.662L669.569 62.168H704.403L692.391 117.982C691.75 121.186 691.11 124.255 690.469 127.191C689.882 130.128 689.588 132.69 689.588 134.879C689.588 139.47 690.763 143.047 693.112 145.609C695.514 148.172 698.877 149.453 703.202 149.453C708.22 149.453 712.224 147.718 715.213 144.248C718.256 140.778 720.605 135.119 722.26 127.271L736.194 62.168H770.948L756.694 129.273C753.811 142.353 749.967 152.336 745.162 159.223C740.411 166.109 734.272 171.128 726.745 174.277C719.271 177.427 710.115 179.002 699.278 179.002Z" fill="#F1BD5B"/>
<path d="M1006.68 177H971.93L980.258 137.602L960.959 62.168H998.516L1003.24 98.2832C1003.77 102.394 1004.04 106.451 1004.04 110.455H1004.36C1006.76 104.209 1008.37 100.365 1009.17 98.9238L1028.79 62.168H1067.54L1015.01 137.121L1006.68 177Z" fill="#F1BD5B"/>
</svg>
